#!OML:ASF H:\Not Pregnant\Project 1\Capture day 1\Session 1\non-pregnant.ASF
:FULLY-SPECIFIED
:DEGREES
282
root -4.97718 15.9044 36.7062 174.214 -75.3765 -158.552
lowerback 0.00890663 1.19785 -0.859727
upperback -7.42645 1.44535 1.70367
thorax -7.83545 0.735357 2.18474
lowerneck 9.91946 -5.66994 -27.5024
upperneck -2.88073 -14.2366 46.7002
head 4.07238 -9.78303 25.6957
rclavicle 2.87395e-014 3.97569e-015
rhumerus -42.3673 26.3094 -96.2384
rradius 67.7478
rwrist -11.4187
rhand -40.4153 -14.0326
rfingers 7.12502
rthumb -13.3681 -43.5838
lclavicle 2.87395e-014 3.97569e-015
lhumerus -32.4741 -7.0562 96.1378
lradius 37.6725
lwrist 34.145
lhand -39.0382 -14.8252
lfingers 7.12502
lthumb -12.0405 14.8085
rfemur -33.2857 -9.70088 27.0983
rtibia 44.6031
rfoot -23.5056 -0.901901
rtoes -27.2164
lfemur -31.4428 6.21391 -22.7398
ltibia 32.5634
lfoot -16.9855 1.38
ltoes -10.2974
283
root -4.98598 15.9134 36.6835 173.408 -75.8193 -157.857
lowerback 0.0173636 1.10388 -0.994059
upperback -7.41031 1.31537 1.70486
thorax -7.82061 0.680861 2.27009
lowerneck 10.1336 -5.76564 -27.5683
upperneck -3.19528 -14.3821 46.803
head 4.04323 -9.90235 25.7915
rclavicle 2.33525e-014 -2.68359e-014
rhumerus -42.8634 26.6685 -96.6809
rradius 67.3506
rwrist -11.7805
rhand -39.8007 -13.6145
rfingers 7.12502
rthumb -12.7756 -43.2036
lclavicle 2.33525e-014 -2.68359e-014
lhumerus -32.6319 -7.45906 97.0578
lradius 37.6348
lwrist 34.6633
lhand -39.2503 -14.7069
lfingers 7.12502
lthumb -12.245 14.9147
rfemur -33.223 -8.95326 26.6332
rtibia 44.0998
rfoot -23.4949 -0.609817
rtoes -27.0931
lfemur -31.1606 6.12734 -22.623
ltibia 32.3248
lfoot -16.9619 1.04614
ltoes -10.4405
284
root -4.99545 15.9228 36.6604 172.455 -76.2728 -157.024
lowerback 0.0272863 1.00866 -1.09663
upperback -7.39306 1.18493 1.70339
thorax -7.80384 0.623877 2.33484
lowerneck 10.3447 -5.8639 -27.6085
upperneck -3.48992 -14.5305 46.8938
head 4.01607 -10.02 25.8628
rclavicle 1.6819e-015 -1.5704e-014
rhumerus -43.3506 26.9633 -97.1133
rradius 66.9324
rwrist -12.3831
rhand -39.0768 -13.1783
rfingers 7.12502
rthumb -12.0777 -42.8097
lclavicle 1.6819e-015 -1.5704e-014
lhumerus -32.8406 -7.98672 97.9585
lradius 37.6623
lwrist 35.2378
lhand -39.3036 -14.5897
lfingers 7.12502
lthumb -12.2964 15.0288
rfemur -33.1088 -8.19844 26.1852
rtibia 43.5881
rfoot -23.4274 -0.363114
rtoes -26.9332
lfemur -30.8653 6.01697 -22.4798
ltibia 32.0845
lfoot -16.9351 0.715484
ltoes -10.5661
285
root -5.00563 15.9323 36.6362 171.289 -76.7258 -155.984
lowerback 0.0282175 0.909663 -1.17645
upperback -7.36796 1.05135 1.7159
thorax -7.77246 0.564181 2.40181
lowerneck 10.5387 -5.96617 -27.6333
upperneck -3.76121 -14.6808 46.9676
head 3.99481 -10.1331 25.9067
rclavicle -3.45334e-014 -4.77083e-015
rhumerus -43.8184 27.2142 -97.5196
rradius 66.4946
rwrist -13.1948
rhand -38.2576 -12.8175
rfingers 7.12502
rthumb -11.2878 -42.4938
lclavicle -3.45334e-014 -4.77083e-015
lhumerus -33.0902 -8.62716 98.8419
lradius 37.7492
lwrist 35.8423
lhand -39.1793 -14.4976
lfingers 7.12502
lthumb -12.1766 15.128
rfemur -32.9397 -7.43281 25.7776
rtibia 43.0627
rfoot -23.3135 -0.170857
rtoes -26.7676
lfemur -30.5623 5.89799 -22.2937
ltibia 31.8526
lfoot -16.9141 0.382152
ltoes -10.6526
286
root -5.01655 15.9417 36.6109 169.901 -77.1765 -154.726
lowerback 0.0174957 0.804975 -1.24124
upperback -7.33887 0.911722 1.74611
thorax -7.72926 0.500895 2.47938
lowerneck 10.7147 -6.07018 -27.6544
upperneck -4.00259 -14.832 47.0218
head 3.98173 -10.2407 25.9258
rclavicle -2.57333e-015 9.93923e-015
rhumerus -44.2718 27.4331 -97.8917
rradius 66.0388
rwrist -14.1598
rhand -37.2697 -12.5115
rfingers 7.12502
rthumb -10.3348 -42.2376
lclavicle -2.57333e-015 9.93923e-015
lhumerus -33.3834 -9.36128 99.7066
lradius 37.8816
lwrist 36.4304
lhand -38.8591 -14.467
lfingers 7.12502
lthumb -11.8678 15.1767
rfemur -32.7256 -6.67792 25.4148
rtibia 42.5263
rfoot -23.1631 0.00262955
rtoes -26.5279
lfemur -30.2591 5.77584 -22.0706
ltibia 31.6334
lfoot -16.8985 0.058263
ltoes -10.8789
287
root -5.02853 15.9511 36.5844 168.28 -77.6285 -153.239
lowerback -0.00864688 0.691322 -1.29827
upperback -7.30369 0.761534 1.79603
thorax -7.66967 0.432274 2.57397
lowerneck 10.8696 -6.17248 -27.6839
upperneck -4.2125 -14.9798 47.0566
head 3.97746 -10.3403 25.9272
rclavicle -1.37084e-014 4.77083e-015
rhumerus -44.7023 27.6112 -98.2189
rradius 65.56
rwrist -15.2201
rhand -36.119 -12.3524
rfingers 7.12502
rthumb -9.22466 -42.1306
lclavicle -1.37084e-014 4.77083e-015
lhumerus -33.7138 -10.1708 100.548
lradius 38.0515
lwrist 36.9639
lhand -38.3131 -14.4844
lfingers 7.12502
lthumb -11.3413 15.1889
rfemur -32.4665 -5.94886 25.0976
rtibia 41.9839
rfoot -22.997 0.148998
rtoes -26.2629
lfemur -29.9523 5.65267 -21.8166
ltibia 31.4271
lfoot -16.8937 -0.26343
ltoes -11.2213
288
root -5.04185 15.9599 36.5571 166.497 -78.095 -151.594
lowerback -0.0548069 0.570429 -1.36297
upperback -7.26598 0.601632 1.85201
thorax -7.59481 0.359197 2.67966
lowerneck 11.0174 -6.27701 -27.7096
upperneck -4.40281 -15.1287 47.0744
head 3.97639 -10.4358 25.9067
rclavicle 7.71222e-015 2.10712e-014
rhumerus -45.1022 27.7068 -98.4889
rradius 65.0503
rwrist -16.3084
rhand -34.7157 -12.3174
rfingers 7.12502
rthumb -7.87041 -42.1509
lclavicle 7.71222e-015 2.10712e-014
lhumerus -34.0809 -11.0485 101.357
lradius 38.2489
lwrist 37.4276
lhand -37.51 -14.5484
lfingers 7.12502
lthumb -10.5667 15.1659
rfemur -32.1802 -5.30446 24.8126
rtibia 41.45
rfoot -22.8361 0.296179
rtoes -26.0264
lfemur -29.6473 5.52291 -21.562
ltibia 31.2365
lfoot -16.9065 -0.583309
ltoes -11.7164
289
root -5.05645 15.9681 36.529 164.609 -78.5795 -149.848
lowerback -0.114411 0.440207 -1.44944
upperback -7.23139 0.428336 1.91147
thorax -7.51448 0.280677 2.80177
lowerneck 11.1621 -6.37771 -27.7456
upperneck -4.56867 -15.2731 47.0735
head 3.97759 -10.5245 25.8723
rclavicle 5.58461e-015 1.55052e-014
rhumerus -45.4813 27.7327 -98.7014
rradius 64.5038
rwrist -17.3672
rhand -33.1206 -12.4579
rfingers 7.12502
rthumb -6.33064 -42.3433
lclavicle 5.58461e-015 1.55052e-014
lhumerus -34.4843 -11.9603 102.126
lradius 38.4726
lwrist 37.8666
lhand -36.4205 -14.6861
lfingers 7.12502
lthumb -9.51551 15.079
rfemur -31.8758 -4.75816 24.5426
rtibia 40.9343
rfoot -22.6971 0.454372
rtoes -25.8531
lfemur -29.3458 5.38746 -21.3276
ltibia 31.0611
lfoot -16.9408 -0.91346
ltoes -12.254
290
root -5.07042 15.9745 36.5073 162.64 -79.0739 -147.968
lowerback -0.201352 0.310887 -1.44129
upperback -7.22663 0.256965 1.94563
thorax -7.44833 0.195577 2.84375
lowerneck 11.3188 -6.47603 -27.7881
upperneck -4.71983 -15.4172 47.0584
head 3.97746 -10.6112 25.8274
rclavicle -4.50682e-015 -2.78299e-014
rhumerus -45.8369 27.6669 -98.8603
rradius 63.9091
rwrist -18.3432
rhand -31.2436 -12.7279
rfingers 7.12502
rthumb -4.51839 -42.6597
lclavicle -4.50682e-015 -2.78299e-014
lhumerus -34.9166 -12.8712 102.832
lradius 38.7124
lwrist 38.3308
lhand -34.9739 -14.9171
lfingers 7.12502
lthumb -8.11956 14.9069
rfemur -31.6511 -4.35483 24.2784
rtibia 40.449
rfoot -22.5678 0.68012
rtoes -25.7862
lfemur -29.1275 5.15212 -21.1246
ltibia 30.9063
lfoot -16.9575 -1.16689
ltoes -12.8043
291
root -5.0834 15.9794 36.4925 160.608 -79.5802 -145.97
lowerback -0.313093 0.189662 -1.34648
upperback -7.25232 0.0966135 1.95267
thorax -7.40025 0.109075 2.80757
lowerneck 11.4992 -6.57849 -27.8408
upperneck -4.87427 -15.5717 47.0368
head 3.97623 -10.7039 25.7788
rclavicle 8.94531e-016 1.07344e-014
rhumerus -46.1571 27.4919 -98.9402
rradius 63.2598
rwrist -19.2231
rhand -29.1736 -13.129
rfingers 7.12502
rthumb -2.51935 -43.0938
lclavicle 8.94531e-016 1.07344e-014
lhumerus -35.3584 -13.7486 103.465
lradius 38.9578
lwrist 38.9108
lhand -33.0794 -15.2524
lfingers 7.12502
lthumb -6.2909 14.6342
rfemur -31.5068 -4.07168 24.0019
rtibia 39.9919
rfoot -22.444 0.963786
rtoes -25.7842
lfemur -28.9966 4.81265 -20.962
ltibia 30.7727
lfoot -16.9551 -1.34998
ltoes -13.2632
